<?xml version="1.0" encoding="UTF-8" standalone="no" ?>
<!DOCTYPE svg PUBLIC "-//W3C//DTD SVG 1.1//EN" "http://www.w3.org/Graphics/SVG/1.1/DTD/svg11.dtd">
<svg xmlns="http://www.w3.org/2000/svg" xmlns:xlink="http://www.w3.org/1999/xlink" version="1.1" width="640" height="360" viewBox="0 0 640 360" xml:space="preserve">
<desc>Created with Fabric.js 4.6.0</desc>
<defs>
</defs>
<g transform="matrix(0.26 0 0 0.26 319.76 180)" id="mmCWtK38EcMO__PwphLcq"  >
<g style="" vector-effect="non-scaling-stroke"   >
		<g transform="matrix(12.97 0 0 12.97 0 0)" id="gVWlzjUXr3ZIS5JOk3fHN"  >
<path style="stroke: none; stroke-width: 1; stroke-dasharray: none; stroke-linecap: butt; stroke-dashoffset: 0; stroke-linejoin: miter; stroke-miterlimit: 4; fill: rgb(255,255,255); fill-opacity: 0; fill-rule: evenodd; opacity: 1;" vector-effect="non-scaling-stroke"  transform=" translate(-96.38, -96.38)" d="M 0 0 L 192.756 0 L 192.756 192.756 L 0 192.756 L 0 0 z" stroke-linecap="round" />
</g>
		<g transform="matrix(12.97 0 0 12.97 0.01 0)" id="fSPaofIAB5FXTyCtevVVq"  >
<path style="stroke: none; stroke-width: 1; stroke-dasharray: none; stroke-linecap: butt; stroke-dashoffset: 0; stroke-linejoin: miter; stroke-miterlimit: 4; fill: rgb(0,0,0); fill-rule: evenodd; opacity: 1;" vector-effect="non-scaling-stroke"  transform=" translate(-96.38, -96.38)" d="M 189.922 83.297 L 164.137 83.297 L 164.137 74.283 C 164.137 68.616 163.885 65.061 163.405 63.618 C 162.903 62.196000000000005 161.75300000000001 61.485 159.913 61.485 C 158.30200000000002 61.485 157.235 62.091 156.649 63.325 C 156.085 64.538 155.792 67.696 155.792 72.757 L 155.792 120.355 C 155.792 124.808 156.085 127.738 156.649 129.16 C 157.235 130.56 158.364 131.271 160.079 131.271 C 161.96200000000002 131.271 163.237 130.476 163.92700000000002 128.886 C 164.597 127.277 164.931 124.181 164.931 119.56 L 164.931 107.806 L 159.72400000000002 107.806 L 159.72400000000002 92.729 L 189.92300000000003 92.729 L 189.92300000000003 145.973 L 173.69400000000002 145.973 L 171.30900000000003 138.864 C 169.55300000000003 141.93800000000002 167.336 144.21800000000002 164.65900000000002 145.764 C 161.98300000000003 147.291 158.82500000000002 148.065 155.186 148.065 C 150.856 148.065 146.799 146.999 143.036 144.907 C 139.251 142.79600000000002 136.386 140.202 134.419 137.08700000000002 C 132.454 133.991 131.241 130.73000000000002 130.739 127.31900000000002 C 130.25900000000001 123.91100000000002 130.007 118.78800000000001 130.007 111.96900000000002 L 130.007 82.503 C 130.007 73.029 130.50900000000001 66.149 131.534 61.862 C 132.557 57.554 135.48499999999999 53.622 140.339 50.067 C 145.169 46.491 151.421 44.692 159.118 44.692 C 166.667 44.692 172.94 46.24 177.91899999999998 49.356 C 182.896 52.451 186.15699999999998 56.152 187.66299999999998 60.418 C 189.16899999999998 64.685 189.92299999999997 70.875 189.92299999999997 79.00999999999999 L 189.92299999999997 83.297 L 189.92199999999997 83.297 z M 62.5 104.859 C 62.5 114.83399999999999 62.27 121.88 61.81 126.02099999999999 C 61.329 130.183 59.865 133.968 57.397000000000006 137.398 C 54.93000000000001 140.828 51.584 143.462 47.38000000000001 145.304 C 43.17600000000001 147.144 38.26200000000001 148.064 32.67800000000001 148.064 C 27.36600000000001 148.064 22.598000000000013 147.185 18.37400000000001 145.451 C 14.128000000000009 143.715 10.74100000000001 141.12099999999998 8.16800000000001 137.65 C 5.5950000000000095 134.17900000000003 4.06900000000001 130.392 3.56700000000001 126.31400000000001 C 3.08600000000001 122.21600000000001 2.8350000000000097 115.06400000000001 2.8350000000000097 104.85900000000001 L 2.8350000000000097 87.898 C 2.8350000000000097 77.922 3.0650000000000097 70.875 3.5460000000000096 66.713 C 4.00600000000001 62.571999999999996 5.46900000000001 58.78699999999999 7.95900000000001 55.35799999999999 C 10.42700000000001 51.92799999999999 13.75200000000001 49.29299999999999 17.97600000000001 47.45299999999999 C 22.18000000000001 45.612999999999985 27.073000000000008 44.691999999999986 32.67800000000001 44.691999999999986 C 37.99000000000001 44.691999999999986 42.75800000000001 45.570999999999984 46.98300000000001 47.30599999999998 C 51.20800000000001 49.04199999999998 54.616000000000014 51.634999999999984 57.18800000000001 55.10599999999998 C 59.76000000000001 58.57799999999998 61.287000000000006 62.36299999999998 61.76800000000001 66.44099999999997 C 62.27000000000001 70.53999999999998 62.50000000000001 77.67099999999998 62.50000000000001 87.89799999999997 L 62.50000000000001 104.85899999999997 z M 36.713 72.276 C 36.713 67.654 36.462 64.70599999999999 35.94 63.40899999999999 C 35.437999999999995 62.13299999999999 34.391999999999996 61.48499999999999 32.803 61.48499999999999 C 31.443999999999996 61.48499999999999 30.418999999999997 62.007999999999996 29.708 63.05299999999999 C 28.976999999999997 64.07799999999999 28.621 67.15299999999999 28.621 72.276 L 28.621 118.578 C 28.621 124.349 28.872 127.904 29.331999999999997 129.242 C 29.791999999999998 130.60299999999998 30.9 131.271 32.614999999999995 131.271 C 34.37199999999999 131.271 35.48 130.498 35.98199999999999 128.951 C 36.46199999999999 127.381 36.712999999999994 123.701 36.712999999999994 117.84599999999999 L 36.712999999999994 72.27599999999998 z M 124.254 76.793 L 100.311 76.793 L 100.311 69.453 C 100.311 66.023 99.99700000000001 63.827000000000005 99.38900000000001 62.886 C 98.784 61.945 97.75800000000001 61.485 96.31500000000001 61.485 C 94.76700000000001 61.485 93.59600000000002 62.112 92.802 63.388 C 92.00800000000001 64.643 91.61000000000001 66.567 91.61000000000001 69.139 C 91.61000000000001 72.443 92.049 74.953 92.94800000000001 76.62599999999999 C 93.80600000000001 78.29899999999999 96.25300000000001 80.30699999999999 100.248 82.69 C 111.72800000000001 89.507 118.94300000000001 95.091 121.934 99.46199999999999 C 124.612 103.374 126.08 109.43299999999999 126.36 117.636 C 123.751 119.25099999999999 119.637 120.964 113.53399999999999 120.964 C 109.41099999999999 120.964 105.49499999999999 119.72 101.645 118.155 C 101.295 115.116 100.584 112.989 99.514 111.78 C 97.88499999999999 109.981 93.847 106.991 87.448 102.788 C 81.02799999999999 98.52 76.78299999999999 95.447 74.692 93.52199999999999 C 72.621 91.59899999999999 70.886 88.942 69.526 85.55499999999999 C 68.146 82.16699999999999 67.476 77.838 67.476 72.568 C 67.476 64.977 68.438 59.414 70.383 55.900999999999996 C 72.307 52.38699999999999 75.44399999999999 49.647999999999996 79.773 47.660999999999994 C 84.10199999999999 45.69499999999999 89.33099999999999 44.690999999999995 95.458 44.690999999999995 C 102.17 44.690999999999995 107.881 45.778999999999996 112.586 47.93299999999999 C 117.313 50.10799999999999 120.428 52.82699999999999 121.975 56.13099999999999 C 123.502 59.413999999999994 124.25399999999999 64.99799999999999 124.25399999999999 72.881 L 124.25399999999999 76.793 z M 126.357 123.52100000000002 C 126.30190490347955 125.13274467186987 126.17946470280387 126.7414821314288 125.99 128.34300000000002 C 123.36699999999999 129.89000000000001 119.35499999999999 131.44700000000003 113.53299999999999 131.44700000000003 C 109.20899999999999 131.44700000000003 105.10899999999998 130.07800000000003 101.076 128.40600000000003 C 101.576 127.23200000000003 101.847 125.69700000000003 101.892 123.80800000000004 C 105.556 125.16200000000003 109.363 126.15200000000003 113.533 126.15200000000003 C 119.053 126.15200000000003 123.252 124.95900000000003 126.357 123.52100000000003 z M 124.547 134.762 C 124.3636087649355 135.26155310867648 124.15432532845837 135.75121626866365 123.92 136.229 C 123.014 138.06500000000003 121.643 139.741 119.809 141.25400000000002 C 118.002 141.67000000000002 115.91799999999999 141.93200000000002 113.53399999999999 141.93200000000002 C 107.934 141.93200000000002 102.71199999999999 139.639 97.52199999999999 137.36 C 91.97 134.92100000000002 86.44999999999999 132.497 80.12299999999999 132.42800000000003 C 76.46499999999999 132.38900000000004 73.085 133.11 70.442 133.91200000000003 C 69.961 132.56600000000003 69.559 131.04300000000003 69.238 129.34000000000003 C 71.617 128.40400000000002 75.661 127.08400000000003 80.082 127.13300000000004 C 85.37299999999999 127.19000000000004 90.399 129.39700000000005 95.454 131.61700000000005 C 101.149 134.11900000000006 106.881 136.63700000000006 113.53399999999999 136.63700000000006 C 118.04499999999999 136.63700000000006 121.67599999999999 135.83800000000005 124.547 134.76200000000006 z M 108.779 146.699 C 105.429 147.60500000000002 101.773 148.06400000000002 97.8 148.06400000000002 C 90.898 148.06400000000002 85.001 146.746 80.128 144.13200000000003 C 77.145 142.53800000000004 74.793 140.67900000000003 73.068 138.55800000000002 C 75.118 138.01300000000003 77.536 137.58700000000002 80.081 137.61700000000002 C 85.372 137.674 90.398 139.88100000000003 95.453 142.10100000000003 C 99.748 143.98800000000003 104.06400000000001 145.88300000000004 108.779 146.69900000000004 z M 68.544 124.05900000000001 C 68.41272300797486 122.45521545373089 68.3303514427155 120.84780272275864 68.297 119.239 C 70.42999999999999 118.34100000000001 75.00699999999999 116.59400000000001 80.082 116.649 C 84.243 116.694 88.24 118.069 92.216 119.733 L 92.216 122.51 C 92.216 123.28 92.232 123.992 92.25999999999999 124.649 C 88.413 123.143 84.457 121.993 80.12199999999999 121.946 C 75.51699999999998 121.895 71.35199999999999 123.04899999999999 68.54399999999998 124.059 z M 68.271 113.674 L 68.271 110.444 L 92.21600000000001 110.444 L 92.21600000000001 114.147 C 88.38300000000001 112.65100000000001 84.441 111.50800000000001 80.12200000000001 111.46100000000001 C 75.36500000000001 111.40800000000002 71.07700000000001 112.64300000000001 68.27100000000002 113.674 z" stroke-linecap="round" />
</g>
</g>
</g>
</svg>